<?xml version="1.0" encoding="UTF-8"?>
<svg width="16px" height="9px" viewBox="0 0 16 9" version="1.1" xmlns="http://www.w3.org/2000/svg" xmlns:xlink="http://www.w3.org/1999/xlink">
    <!-- Generator: Sketch 50.2 (55047) - http://www.bohemiancoding.com/sketch -->
    <title>zl-vector</title>
    <desc>Created with Sketch.</desc>
    <defs></defs>
    <g id="Page-1" stroke="none" stroke-width="1" fill="none" fill-rule="evenodd">
        <g id="zl-vector" transform="translate(0.000000, -3.000000)">
            <path d="M0.188235294,15.1529415 L0.188235294,0 L15.3411768,0 L15.3411768,15.0582357 C10.2901963,15.1529415 5.23921581,15.1529415 0.188235294,15.1529415 Z" id="Shape"></path>
            <path d="M4.32941176,4.61176471 L0.282352941,4.61176471 C0.188235294,4.61176471 0.188235294,4.61176471 0.188235294,4.51764706 L0.188235294,3.2 L0.188235294,3.01176471 L0.282352941,3.01176471 L6.49411765,3.01176471 C6.49411765,3.01176471 6.58823529,3.01176471 6.58823529,3.10588235 L6.58823529,4.23529412 L6.58823529,4.32941176 C6.30588235,4.70588235 6.02352941,5.17647059 5.74117647,5.55294118 C5.27058824,6.21176471 4.8,6.96470588 4.23529412,7.62352941 C3.95294118,8.09411765 3.57647059,8.47058824 3.29411765,8.94117647 C3.01176471,9.41176471 2.72941176,9.78823529 2.35294118,10.2588235 C2.35294118,10.2588235 2.35294118,10.2588235 2.35294118,10.3529412 L2.44705882,10.3529412 L6.68235294,10.3529412 L6.77647059,10.3529412 L6.77647059,11.7647059 C6.77647059,11.7647059 6.77647059,11.8588235 6.68235294,11.8588235 L0.282352941,11.8588235 C0.282352941,11.8588235 0.188235294,11.8588235 0.188235294,11.7647059 L0.188235294,10.5411765 L0.188235294,10.4470588 C0.470588235,10.0705882 0.752941176,9.6 1.03529412,9.22352941 C1.50588235,8.56470588 1.97647059,7.81176471 2.54117647,7.15294118 C2.82352941,6.68235294 3.2,6.21176471 3.48235294,5.83529412 C3.76470588,5.45882353 4.04705882,5.08235294 4.32941176,4.61176471 Z" id="Shape" fill="#8D8C8C" fill-rule="nonzero"></path>
            <path d="M11.6705882,10.2588235 C11.6705882,10.3529412 11.6705882,10.3529412 11.7647059,10.3529412 L15.2470588,10.3529412 C15.3411765,10.3529412 15.3411765,10.3529412 15.3411765,10.4470588 L15.3411765,11.8588235 C15.3411765,11.9529412 15.3411765,11.9529412 15.2470588,11.9529412 L9.88235294,11.9529412 C9.78823529,11.9529412 9.78823529,11.9529412 9.78823529,11.8588235 L9.78823529,7.52941176 L9.78823529,5.17647059 L9.78823529,3.10588235 C9.78823529,3.01176471 9.78823529,3.01176471 9.88235294,3.01176471 L11.6705882,3.01176471 C11.6705882,3.01176471 11.7647059,3.01176471 11.7647059,3.10588235 C11.6705882,4.23529412 11.6705882,5.45882353 11.6705882,6.68235294 L11.6705882,10.2588235 Z" id="Shape" fill="#8D8C8C" fill-rule="nonzero"></path>
        </g>
    </g>
</svg>